<svg xmlns="http://www.w3.org/2000/svg" viewBox="0 0 79.31 24.12"><title>Asset 1</title><g id="Layer_2" data-name="Layer 2"><g id="Layer_1-2" data-name="Layer 1"><path d="M4.82,6.27h3V27.32H19.47v2.56H4.82Z" transform="translate(-4.82 -6.19)"/><path d="M23.76,21.17c0-5.87,4-9.22,8.64-9.22S41,15.3,41,21.17s-4,9.14-8.64,9.14S23.76,27,23.76,21.17Zm14.22,0c0-4-2.23-6.73-5.58-6.73s-5.58,2.7-5.58,6.73,2.23,6.66,5.58,6.66S38,25.16,38,21.17Zm-10.37-15h9.58V8.25H27.61Z" transform="translate(-4.82 -6.19)"/><path d="M46,21V6.27H49.1V21c0,4.86,2.13,6.63,4.93,6.63s5-1.77,5-6.63V6.27H62V21c0,6.77-3.31,9.36-7.92,9.36S46,27.72,46,21Z" transform="translate(-4.82 -6.19)"/><path d="M70,12.39H72.5l.29,4.14h.07A9.22,9.22,0,0,1,80.67,12a7.36,7.36,0,0,1,3.46.72l-.69,2.56a8.66,8.66,0,0,0-3.23-.58c-2.63,0-5.12,1.34-7.2,5V29.88H70Z" transform="translate(-4.82 -6.19)"/></g></g></svg>